<mxfile host="app.diagrams.net" modified="2021-11-15T21:01:26.494Z" agent="5.0 (Windows)" etag="_qb-hPcpYa2_w_FKlFtG" version="15.7.4" type="github">
  <diagram id="mflet01mKcNOprLp3C8A" name="ページ1">
    <mxGraphModel dx="460" dy="771" grid="1" gridSize="10" guides="1" tooltips="1" connect="1" arrows="1" fold="1" page="1" pageScale="1" pageWidth="827" pageHeight="1169" math="0" shadow="0">
      <root>
        <mxCell id="0" />
        <mxCell id="1" parent="0" />
        <mxCell id="b01LTP_591k1olKWwIqR-1" value="太陽光電池" style="rounded=0;whiteSpace=wrap;html=1;" vertex="1" parent="1">
          <mxGeometry x="60" y="370" width="120" height="20" as="geometry" />
        </mxCell>
      </root>
    </mxGraphModel>
  </diagram>
</mxfile>
